Coordinates
version=1
nRows=6
nColumns=34
inDegrees=yes

Units are S.I. units (second, meters, Newtons, ...)
Angles are in degrees.

endheader
time	pelvis_tilt	pelvis_list	pelvis_rotation	pelvis_tx	pelvis_ty	pelvis_tz	hip_flexion_r	hip_adduction_r	hip_rotation_r	knee_angle_r	ankle_angle_r	subtalar_angle_r	mtp_angle_r	hip_flexion_l	hip_adduction_l	hip_rotation_l	knee_angle_l	socket_flexion	socket_adduction	socket_rotation	socket_tx	socket_ty	socket_tz	pros_ankle_rx	pros_ankle_ry	pros_ankle_rz	pros_ankle_tx	pros_ankle_ty	pros_ankle_tz	foot_flex	lumbar_extension	lumbar_bending	lumbar_rotation
      0.90416667	     -1.57410162	     -9.21829618	      2.06872274	      0.46070952	      1.03828206	      0.36730451	     13.20337040	     13.70200182	     -5.95960695	    -20.83325022	      8.40490135	      9.78343027	     12.66635806	     22.60728070	    -17.01445443	     -1.96675873	    -75.83715413	     -7.24647042	      0.00000000	      0.00000000	      0.00000000	      0.00000000	      0.00000000	      0.00000000	      0.00000000	      0.00000000	      0.00000000	      0.00000000	      0.00000000	     -1.36517162	     -7.67346685	      5.34275111	    -23.17713062
      0.90833333	     -1.33507394	     -8.91419559	      2.19533012	      0.46589448	      1.04003295	      0.36679074	     12.53936384	     13.20964564	     -6.60826246	    -20.69570184	      8.34275682	     10.95711517	     13.77049436	     22.73062360	    -16.45469555	     -1.74427815	    -75.12049572	     -7.08717268	      0.00000000	      0.00000000	      0.00000000	      0.00000000	      0.00000000	      0.00000000	      0.00000000	      0.00000000	      0.00000000	      0.00000000	      0.00000000	     -1.32906884	     -7.88774651	      4.99128743	    -23.33659389
      0.91250000	     -1.39670994	     -8.85336847	      2.13653679	      0.47073835	      1.04110520	      0.36666721	     12.14548932	     13.14829589	     -6.53582223	    -20.42755288	      8.33612449	     11.08998386	     13.83104810	     23.27014337	    -16.22369460	     -1.54948999	    -74.61040224	     -7.04929299	      0.00000000	      0.00000000	      0.00000000	      0.00000000	      0.00000000	      0.00000000	      0.00000000	      0.00000000	      0.00000000	      0.00000000	      0.00000000	     -1.36450882	     -7.87948518	      4.93936459	    -23.22373713
      0.91666667	     -1.40177695	     -8.66247705	      2.10541419	      0.47581135	      1.04245503	      0.36651303	     11.66380082	     12.90730920	     -6.64536002	    -20.12505719	      8.08543639	     11.42839594	     14.14381205	     23.63717820	    -15.83736361	     -1.41019582	    -73.88832367	     -6.92262581	      0.00000000	      0.00000000	      0.00000000	      0.00000000	      0.00000000	      0.00000000	      0.00000000	      0.00000000	      0.00000000	      0.00000000	      0.00000000	     -1.33765491	     -7.79766849	      4.70735025	    -23.12214807
      0.92083333	     -1.43541905	     -8.59306666	      2.05067672	      0.48069181	      1.04357462	      0.36637967	     11.23009716	     12.82959057	     -6.60596516	    -19.84610006	      8.09860330	     11.62708758	     14.24654046	     24.09467934	    -15.59231157	     -1.23420968	    -73.27208526	     -6.88404911	      0.00000000	      0.00000000	      0.00000000	      0.00000000	      0.00000000	      0.00000000	      0.00000000	      0.00000000	      0.00000000	      0.00000000	      0.00000000	     -1.33877207	     -7.76922968	      4.65179792	    -23.02025906
      0.92500000	     -1.41830740	     -8.42543191	      1.99631841	      0.48574285	      1.04495509	      0.36626371	     10.72792233	     12.61767529	     -6.70615950	    -19.54669460	      7.88689604	     12.00494512	     14.49162992	     24.39427560	    -15.24206986	     -1.12140154	    -72.47031295	     -6.76911460	      0.00000000	      0.00000000	      0.00000000	      0.00000000	      0.00000000	      0.00000000	      0.00000000	      0.00000000	      0.00000000	      0.00000000	      0.00000000	     -1.33200032	     -7.72644886	      4.44026613	    -22.90605820
